<svg width="198" height="97" viewBox="0 0 198 97" fill="none" xmlns="http://www.w3.org/2000/svg">
<path d="M54.4646 -3.57628e-06C58.0246 -3.57628e-06 61.1446 0.459996 63.8246 1.38C66.5446 2.26 68.7846 3.54 70.5446 5.22C72.3046 6.86 73.6246 8.88 74.5046 11.28C75.3846 13.64 75.8246 16.28 75.8246 19.2V25.8C75.8246 28.72 75.3846 31.38 74.5046 33.78C73.6246 36.14 72.3046 38.16 70.5446 39.84C68.7846 41.48 66.5446 42.76 63.8246 43.68C61.1446 44.56 58.0246 45 54.4646 45H31.1246V-3.57628e-06H54.4646ZM53.6846 9.48H43.1246V35.52H53.3846C57.3446 35.52 59.9646 34.78 61.2446 33.3C62.5646 31.82 63.2246 29.28 63.2246 25.68V19.26C63.2246 15.66 62.5846 13.14 61.3046 11.7C60.0246 10.22 57.4846 9.48 53.6846 9.48ZM125.301 45H111.081L99.9212 31.26C98.9212 30.06 98.2212 28.92 97.8212 27.84C97.4212 26.72 97.2212 25.72 97.2212 24.84C97.2212 22.88 97.8212 21.4 99.0212 20.4C100.221 19.36 101.841 18.84 103.881 18.84H109.821C111.141 18.84 112.121 18.48 112.761 17.76C113.401 17 113.721 16.06 113.721 14.94V12.96C113.721 11.76 113.401 10.84 112.761 10.2C112.161 9.56 111.141 9.24 109.701 9.24H94.1012V45H82.1012V-3.57628e-06H108.501C114.301 -3.57628e-06 118.581 0.959997 121.341 2.88C124.101 4.8 125.481 7.9 125.481 12.18V14.76C125.481 16.64 125.101 18.32 124.341 19.8C123.581 21.24 122.561 22.46 121.281 23.46C120.041 24.46 118.561 25.24 116.841 25.8C115.161 26.32 113.381 26.58 111.501 26.58H110.421L125.301 45ZM152.698 28.26L141.898 25.08C137.738 23.84 134.658 22.14 132.658 19.98C130.658 17.82 129.658 15.24 129.658 12.24C129.658 8.48 130.978 5.5 133.618 3.3C136.258 1.1 139.978 -3.57628e-06 144.778 -3.57628e-06H167.878V9.9H144.718C143.438 9.9 142.538 10.14 142.018 10.62C141.498 11.06 141.238 11.56 141.238 12.12C141.238 12.84 141.478 13.44 141.958 13.92C142.478 14.36 143.298 14.74 144.418 15.06L155.398 18.24C160.038 19.6 163.518 21.28 165.838 23.28C168.198 25.24 169.378 28 169.378 31.56C169.378 33.4 169.018 35.14 168.298 36.78C167.618 38.42 166.558 39.84 165.118 41.04C163.718 42.24 161.918 43.2 159.718 43.92C157.558 44.64 155.018 45 152.098 45H130.858V35.1H153.898C155.418 35.1 156.478 34.8 157.078 34.2C157.678 33.6 157.978 32.9 157.978 32.1C157.978 31.14 157.598 30.42 156.838 29.94C156.118 29.42 154.738 28.86 152.698 28.26ZM27.5177 86.508H9.07066V86.68C9.07066 88.314 9.429 89.4033 10.1457 89.948C10.8623 90.4927 12.095 90.765 13.8437 90.765H26.9157V97H14.3167C11.794 97 9.65833 96.7277 7.90966 96.183C6.18966 95.6097 4.79933 94.8213 3.73866 93.818C2.70666 92.786 1.947 91.5533 1.45966 90.12C1.001 88.6867 0.771664 87.11 0.771664 85.39V82.122C0.771664 78.7107 1.76066 75.9873 3.73866 73.952C5.71666 71.888 8.956 70.856 13.4567 70.856H15.1767C17.5847 70.856 19.5913 71.1427 21.1967 71.716C22.802 72.2893 24.0633 73.1063 24.9807 74.167C25.9267 75.199 26.586 76.446 26.9587 77.908C27.3313 79.37 27.5177 80.9897 27.5177 82.767V86.508ZM16.1227 76.618H12.7687C11.3927 76.618 10.4323 76.919 9.88766 77.521C9.343 78.123 9.07066 79.1263 9.07066 80.531V81.09H19.7777V80.531C19.7777 79.1263 19.491 78.123 18.9177 77.521C18.373 76.919 17.4413 76.618 16.1227 76.618ZM31.7411 97V71.2H47.7371C51.4924 71.2 54.2157 72.146 55.9071 74.038C57.5984 75.93 58.4441 78.4957 58.4441 81.735V97H50.2741V81.52C50.2741 80.2013 50.0447 79.2697 49.5861 78.725C49.1561 78.1517 48.3104 77.865 47.0491 77.865H39.9111V97H31.7411ZM87.9122 83.025V97H70.2392C67.8025 97 65.9248 96.441 64.6062 95.323C63.3162 94.205 62.6712 92.743 62.6712 90.937C62.6712 88.959 63.2875 87.368 64.5202 86.164C65.7815 84.9313 67.3152 83.6987 69.1212 82.466L76.4312 77.435H62.8432V71.2H74.1522C79.0828 71.2 82.6088 72.2463 84.7302 74.339C86.8515 76.403 87.9122 79.2983 87.9122 83.025ZM72.6902 90.765H80.2152L80.3012 82.251L72.5182 88.271C72.0308 88.6437 71.6868 88.9303 71.4862 89.131C71.2855 89.303 71.1852 89.5323 71.1852 89.819C71.1852 90.1343 71.2998 90.378 71.5292 90.55C71.7585 90.6933 72.1455 90.765 72.6902 90.765ZM92.8817 97V64.75H101.052V70.77H111.2C114.382 70.77 116.876 71.8307 118.682 73.952C120.488 76.0733 121.391 78.8827 121.391 82.38V85.39C121.391 88.8873 120.488 91.6967 118.682 93.818C116.876 95.9393 114.382 97 111.2 97H92.8817ZM108.405 77.134H101.052V90.636H108.405C110.153 90.636 111.357 90.2347 112.017 89.432C112.676 88.6293 113.006 87.3823 113.006 85.691V81.864C113.006 80.1727 112.676 78.9687 112.017 78.252C111.357 77.5067 110.153 77.134 108.405 77.134ZM125.984 64.75H134.154V97H125.984V64.75ZM165.504 86.508H147.057V86.68C147.057 88.314 147.415 89.4033 148.132 89.948C148.849 90.4927 150.081 90.765 151.83 90.765H164.902V97H152.303C149.78 97 147.645 96.7277 145.896 96.183C144.176 95.6097 142.786 94.8213 141.725 93.818C140.693 92.786 139.933 91.5533 139.446 90.12C138.987 88.6867 138.758 87.11 138.758 85.39V82.122C138.758 78.7107 139.747 75.9873 141.725 73.952C143.703 71.888 146.942 70.856 151.443 70.856H153.163C155.571 70.856 157.578 71.1427 159.183 71.716C160.788 72.2893 162.05 73.1063 162.967 74.167C163.913 75.199 164.572 76.446 164.945 77.908C165.318 79.37 165.504 80.9897 165.504 82.767V86.508ZM154.109 76.618H150.755C149.379 76.618 148.419 76.919 147.874 77.521C147.329 78.123 147.057 79.1263 147.057 80.531V81.09H157.764V80.531C157.764 79.1263 157.477 78.123 156.904 77.521C156.359 76.919 155.428 76.618 154.109 76.618ZM197.333 64.75V97H179.015C175.833 97 173.339 95.9393 171.533 93.818C169.727 91.6967 168.824 88.8873 168.824 85.39V82.81C168.824 79.3127 169.727 76.5033 171.533 74.382C173.339 72.2607 175.833 71.2 179.015 71.2H189.163V64.75H197.333ZM181.81 90.636H189.163V77.564H181.81C180.062 77.564 178.858 77.9653 178.198 78.768C177.539 79.5707 177.209 80.8177 177.209 82.509V85.906C177.209 87.5973 177.539 88.8157 178.198 89.561C178.858 90.2777 180.062 90.636 181.81 90.636Z" fill="#1E1E1E"/>
</svg>
